<svg xmlns="http://www.w3.org/2000/svg" shape-rendering="crispEdges" fill="none" viewBox="0 0 16 16"><path fill="#FF005B" d="M0 0h16v2H0z"/><path fill="#FF146A" d="M0 2h16v2H0z"/><path fill="#FF2980" d="M0 4h16v2H0z"/><path fill="#E93F80" d="M0 6h16v2H0z"/><path fill="#D45480" d="M0 8h16v2H0z"/><path fill="#BE6980" d="M0 10h16v2H0z"/><path fill="#A97F80" d="M0 12h16v2H0z"/><path fill="#7E7F80" d="M0 14h16v2H0z"/><path fill="#E97FFF" d="M2 6h4v2H2zm8 0h4v2h-4z"/><path fill="#D47FFF" d="M2 8h2v2H2zm10 0h2v2h-2z"/><path fill="#550080" d="M4 8h2v2H4zm6 0h2v2h-2z"/><path fill="#2A0080" d="M4 12h2v2H4zm6 0h2v2h-2z"/><path fill="#150080" d="M4 14h8v2H4z"/></svg>