<svg xmlns="http://www.w3.org/2000/svg" shape-rendering="crispEdges" width="128" height="128" fill="none"><path fill="#8F974A" d="M35 107h5v17h-5zm8 3h1v11h-1zm1 1h1v9h-1zm1 2h1v5h-1zm-5-5h2v15h-2zm2 1h1v13h-1zm-10 1h-1v11h1zm-1 1h-1v9h1zm-1 2h-1v5h1zm5-5h-2v15h2zm-2 1h-1v13h1zm65-1h1v8h-1zm1-2h1v12h-1zm1-2h1v16h-1zm1-1h1v18h-1zm1-1h1v20h-1zm1-1h2v22h-2zm2-1h2v24h-2zm2-1h6v26h-6zm6 0h1v25h-1zm1 1h1v24h-1zm1 0h1v23h-1zm1 1h1v22h-1zm1 0h1v21h-1zm1 1h1v19h-1zm1 1h1v17h-1zm1 1h1v15h-1zm1 2h1v11h-1zm1 2h1v7h-1zm-22-74h1v6h-1zm1-2h1v10h-1zm1-1h1v12h-1zm1-1h1v14h-1zm1-1h1v16h-1zm1-1h2v18h-2zm2-1h6v20h-6zm6 1h2v18h-2zm2 1h1v16h-1zm1 1h1v14h-1zm1 1h1v12h-1zm1 1h1v10h-1zm1 2h1v6h-1zM4 26h1v6H4zm1-2h1v10H5zm1-2h1v14H6zm1-1h1v16H7zm1-1h1v18H8zm1-1h2v20H9zm2-1h2v22h-2zm2-1h6v24h-6zm6 1h2v22h-2zm2 1h2v20h-2zm2 1h1v18h-1zm1 1h1v16h-1zm1 1h1v14h-1zm1 2h1v10h-1zm1 2h1v6h-1zM2 73h1v6H2zm1-2h1v10H3zm1-2h1v14H4zm1-1h1v16H5zm1-1h2v18H6zm2-1h2v20H8zm2-1h6v22h-6zm6 1h2v20h-2zm2 1h2v18h-2zm2 1h1v16h-1zm1 1h1v14h-1zm1 2h1v10h-1zm1 2h1v6h-1z"/><path fill="#AC3232" d="M47 64h1v8h-1zm1-2h1v13h-1zm1-2h1v17h-1zm1-2h1v20h-1zm1-1h1v22h-1zm1-1h1v24h-1zm1-1h1v26h-1zm1-1h2v28h-2zm2-1h2v30h-2zm2-1h2v32h-2zm2-1h8v34h-8zm8 1h2v32h-2zm2 1h2v30h-2zm2 1h2v28h-2zm2 1h1v26h-1zm1 1h1v24h-1zm1 1h1v22h-1zm1 1h1v20h-1zm1 2h1v16h-1zm1 2h1v12h-1zm1 2h1v8h-1z"/><path fill="#DF7126" d="M52 15h1v6h-1zm1-3h1v12h-1zm1-2h1v16h-1zm1-1h1v18h-1zm1-2h1v22h-1zm1-1h2v24h-2zm2-1h1v26h-1zm1-1h2v28h-2zm2-1h3v30h-3zm3-1h6v32h-6zm6 1h3v30h-3zm3 1h2v28h-2zm2 1h1v26h-1zm1 1h2v24h-2zm2 1h1v22h-1zm1 2h1v18h-1zm1 1h1v16h-1zm1 2h1v12h-1zm1 3h1v6h-1z"/><path fill="#D95763" d="M40 106h1v2h-1zm1-1h1v3h-1zm1-1h1v5h-1zm1-2h1v8h-1zm1-2h1v10h-1zm1-1h1v10h-1zm1-7h1v16h-1zm1-5h1v20h-1zm1-5h1v23h-1zm1-2h1v23h-1zm1-2h1v23h-1zm1 1h1v16h-1zm1 1h1v10h-1zm1 1h1v4h-1zm1 1h1v1h-1zm46 20h1v2h-1zm-1 0h1v4h-1zm-1-1h1v7h-1zm-1-1h1v7h-1zm-1-1h1v8h-1zm-1-1h1v8h-1zm-1-1h1v8h-1zm-1-1h1v8h-1zm-1 0h1v7h-1zm-1-1h1v7h-1zm-1-1h1v7h-1zm-1-1h1v8h-1zm-1 0h1v7h-1zm-1-1h1v7h-1zm-1-1h1v7h-1zm-1-1h1v8h-1zm-1-2h1v9h-1zm-1-1h1v9h-1zm-1 0h1v8h-1zm-1-1h1v8h-1zm-1-2h1v9h-1zm-1-1h1v8h-1zm-1-1h1v9h-1zm-1-1h1v9h-1zm-1-1h1v9h-1zm-1 0h1v7h-1zm-1 1h1v5h-1zm-1 1h1v3h-1zm-1 0h1v2h-1zm5-25h1v1h-1zm1-1h1v4h-1zm1-1h1v7h-1zm1-1h1v8h-1zm1-1h1v8h-1zm1-1h1v8h-1zm1-1h1v8h-1zm1-1h1v8h-1zm1-1h1v8h-1zm1 0h1v7h-1zm1-1h1v8h-1zm1-1h1v8h-1zm1-1h1v8h-1zm1-1h1v8h-1zm1-1h1v8h-1zm1-1h1v8h-1zm1 0h1v7h-1zm1-1h1v7h-1zm1 0h1v6h-1zm1-1h1v7h-1zm1 0h2v6h-2zm2-1h2v6h-2zm2 2h1v4h-1zm1 1h1v2h-1zm1 1h1v1h-1zM53 54h1v1h-1zm-1-1h1v3h-1zm-1-1h1v5h-1zm-2-1h2v7h-2zm-1-1h1v7h-1zm-1 0h1v6h-1zm-1-1h1v7h-1zm-1-1h1v7h-1zm-1-1h1v8h-1zm-1 0h1v7h-1zm-1-1h1v7h-1zm-2-1h2v7h-2zm-1-1h1v7h-1zm-1-1h1v7h-1zm-1-1h1v8h-1zm-1-1h1v8h-1zm-1 0h1v7h-1zm-1-1h1v7h-1zm-1 0h1v6h-1zm-1-1h1v7h-1zm-2-1h2v7h-2zm-1-1h1v7h-1zm-2-1h2v7h-2zm-1-1h1v7h-1zm-1 1h1v5h-1zm-1 1h1v4h-1zm-1 1h1v2h-1zm18 28h6v5h-6zm-3 0h3v6h-3zm-1 1h1v5h-1zm-3 0h3v6h-3zm-2 1h2v6h-2zm-1 0h1v7h-1zm-2 1h2v7h-2zm-1 1h1v7h-1zm-1 1h1v6h-1zm-1 0h1v7h-1zm-2 1h2v6h-2z"/><path fill="#D77BBA" d="M62 48h1v3h-1zm1-4h1v7h-1zm1-11h1v18h-1zm1 1h3v17h-3zm3 0h2v18h-2zm2 0h1v19h-1zm1-1h1v20h-1zm1 0h1v19h-1zm1 0h1v15h-1z"/></svg>
